<?xml version="1.0" encoding="utf-8"?>
<!-- Generator: Adobe Illustrator 23.0.4, SVG Export Plug-In . SVG Version: 6.00 Build 0)  -->
<svg version="1.1" id="Layer_2" xmlns="http://www.w3.org/2000/svg" xmlns:xlink="http://www.w3.org/1999/xlink" x="0px" y="0px"
	 viewBox="0 0 192 192" enable-background="new 0 0 192 192" xml:space="preserve">
<path fill="#455A65" d="M16,96L16,96c0-12.4,10.1-22.5,22.5-22.5h115c12.4,0,22.5,10.1,22.5,22.5v0c0,12.4-10.1,22.5-22.5,22.5h-115
	C26.1,118.5,16,108.4,16,96z"/>
<path fill="#F3923B" d="M96,176L96,176c-12.4,0-22.5-10.1-22.5-22.5v-115C73.5,26.1,83.6,16,96,16h0c12.4,0,22.5,10.1,22.5,22.5v115
	C118.5,165.9,108.4,176,96,176z"/>
</svg>
